<svg xmlns="http://www.w3.org/2000/svg" xmlns:xlink="http://www.w3.org/1999/xlink" width="500" zoomAndPan="magnify" viewBox="0 0 375 374.999991" height="500" preserveAspectRatio="xMidYMid meet" version="1.0"><defs><clipPath id="3b6fcadeaa"><path d="M 47 4 L 328.679688 4 L 328.679688 370.71875 L 47 370.71875 Z M 47 4 " clip-rule="nonzero"/></clipPath></defs><path fill="#e8e7d6" d="M 83.996094 10.636719 C 83.996094 10.636719 59.527344 59.53125 77.878906 108.425781 L 114.582031 77.867188 L 83.996094 10.636719 " fill-opacity="1" fill-rule="nonzero"/><path fill="#e8e7d6" d="M 291.976562 10.636719 C 291.976562 10.636719 316.445312 59.53125 298.09375 108.425781 L 261.394531 77.867188 L 291.976562 10.636719 " fill-opacity="1" fill-rule="nonzero"/><path fill="#d3843d" d="M 322.5625 145.097656 C 311.09375 106.132812 289.300781 81.78125 266.53125 66.550781 L 291.976562 10.636719 L 239.648438 52.464844 C 211.621094 41.21875 187.988281 41.195312 187.988281 41.195312 C 187.988281 41.195312 164.355469 41.21875 136.324219 52.464844 L 83.996094 10.636719 L 109.445312 66.550781 C 86.671875 81.78125 64.878906 106.132812 53.410156 145.097656 L 77.878906 138.984375 C 77.878906 138.984375 59.527344 187.878906 59.527344 242.886719 L 83.996094 224.550781 C 83.996094 224.550781 90.113281 285.667969 126.816406 322.339844 L 145.167969 297.890625 L 187.988281 365.121094 L 230.808594 297.890625 L 249.160156 322.339844 C 285.863281 285.667969 291.976562 224.550781 291.976562 224.550781 L 316.445312 242.886719 C 316.445312 187.878906 298.09375 138.984375 298.09375 138.984375 L 322.5625 145.097656 " fill-opacity="1" fill-rule="nonzero"/><path fill="#e8e7d6" d="M 249.160156 322.339844 C 285.863281 285.667969 291.976562 224.550781 291.976562 224.550781 L 316.445312 242.886719 C 316.445312 227.390625 314.964844 212.445312 312.886719 198.886719 C 300.460938 187.734375 285.503906 184.035156 261.394531 200.101562 C 224.691406 224.550781 230.808594 187.878906 187.988281 187.878906 C 145.167969 187.878906 151.285156 224.550781 114.582031 200.101562 C 90.472656 184.035156 75.511719 187.734375 63.085938 198.886719 C 61.007812 212.445312 59.527344 227.390625 59.527344 242.886719 L 83.996094 224.550781 C 83.996094 224.550781 90.113281 285.667969 126.816406 322.339844 L 145.167969 297.890625 L 187.988281 365.121094 L 230.808594 297.890625 L 249.160156 322.339844 " fill-opacity="1" fill-rule="nonzero"/><path fill="#f98c96" d="M 187.988281 261.21875 C 201.511719 261.21875 212.457031 250.285156 212.457031 236.773438 L 212.457031 230.660156 C 195.5625 230.660156 187.988281 222.449219 187.988281 212.328125 C 187.988281 222.449219 180.414062 230.660156 163.519531 230.660156 L 163.519531 236.773438 C 163.519531 250.285156 174.460938 261.21875 187.988281 261.21875 " fill-opacity="1" fill-rule="nonzero"/><path fill="#143441" d="M 206.339844 196.019531 C 206.339844 202.777344 198.117188 212.328125 187.988281 212.328125 C 177.855469 212.328125 169.636719 202.777344 169.636719 196.019531 C 169.636719 189.265625 177.855469 187.878906 187.988281 187.878906 C 198.117188 187.878906 206.339844 189.265625 206.339844 196.019531 " fill-opacity="1" fill-rule="nonzero"/><g clip-path="url(#3b6fcadeaa)"><path fill="#000000" d="M 299.578125 133.0625 C 297.378906 132.492188 295.035156 133.207031 293.53125 134.925781 C 292.027344 136.597656 291.574219 139.007812 292.359375 141.132812 C 292.480469 141.417969 299.21875 159.730469 304.402344 186.113281 C 290.808594 180.238281 275.753906 183.175781 258 195.015625 C 241.128906 206.261719 236.898438 203.0625 227.652344 196.019531 C 221.417969 191.269531 213.246094 185.179688 199.765625 182.816406 C 195.179688 181.792969 190.519531 181.765625 187.988281 181.765625 C 185.453125 181.765625 180.792969 181.792969 176.207031 182.816406 C 162.730469 185.179688 154.558594 191.269531 148.320312 196.019531 C 139.074219 203.0625 134.867188 206.261719 117.976562 195.015625 C 100.21875 183.199219 85.167969 180.238281 71.570312 186.113281 C 76.753906 159.730469 83.492188 141.417969 83.613281 141.132812 C 84.402344 139.007812 83.949219 136.597656 82.441406 134.925781 C 80.914062 133.230469 78.59375 132.515625 76.398438 133.0625 L 62.707031 136.476562 C 72.859375 108.902344 89.683594 87.105469 112.835938 71.636719 C 115.324219 69.964844 116.253906 66.742188 115.011719 64.019531 L 100.148438 31.382812 L 132.503906 57.238281 C 134.222656 58.601562 136.566406 58.957031 138.597656 58.148438 C 165.097656 47.523438 187.773438 47.308594 187.964844 47.308594 C 188.203125 47.308594 210.878906 47.523438 237.378906 58.148438 C 239.410156 58.957031 241.75 58.601562 243.472656 57.238281 L 275.824219 31.382812 L 260.960938 64.019531 C 259.71875 66.742188 260.652344 69.964844 263.136719 71.636719 C 286.292969 87.105469 303.113281 108.902344 313.269531 136.476562 Z M 180.746094 217.125 C 177.808594 223.378906 169.132812 224.550781 163.519531 224.550781 C 156.683594 224.550781 145.285156 222.949219 145.191406 212.445312 C 148.726562 210.847656 152.121094 208.484375 155.730469 205.738281 C 158.332031 203.753906 161.007812 201.773438 164.042969 199.984375 C 165.859375 207.144531 172.335938 214.332031 180.746094 217.125 Z M 187.988281 206.214844 C 181.296875 206.214844 175.753906 199.480469 175.707031 195.875 C 175.800781 195.78125 176.328125 195.28125 178.214844 194.828125 C 181.128906 194.324219 184.308594 193.992188 187.988281 193.992188 C 191.738281 193.992188 194.988281 194.324219 197.953125 194.851562 C 199.695312 195.304688 200.148438 195.734375 200.199219 195.78125 C 200.199219 195.78125 200.222656 195.851562 200.222656 196.019531 C 200.222656 199.480469 194.679688 206.214844 187.988281 206.214844 Z M 206.339844 236.320312 L 206.339844 236.773438 C 206.339844 246.894531 198.117188 255.109375 187.988281 255.109375 C 177.855469 255.109375 169.636719 246.894531 169.636719 236.773438 L 169.636719 236.320312 C 178.140625 235.269531 184.117188 232.09375 187.988281 227.917969 C 191.859375 232.09375 197.832031 235.269531 206.339844 236.320312 Z M 195.226562 217.125 C 203.636719 214.332031 210.113281 207.144531 211.929688 199.984375 C 214.964844 201.773438 217.640625 203.753906 220.246094 205.738281 C 223.855469 208.484375 227.246094 210.847656 230.785156 212.445312 C 230.6875 222.949219 219.289062 224.550781 212.457031 224.550781 C 206.839844 224.550781 198.167969 223.378906 195.226562 217.125 Z M 310.019531 230.421875 L 295.660156 219.65625 C 293.890625 218.34375 291.546875 218.054688 289.515625 218.964844 C 287.511719 219.847656 286.101562 221.734375 285.886719 223.953125 C 285.835938 224.503906 280.175781 277.765625 249.660156 312.835938 L 235.707031 294.238281 C 234.488281 292.613281 232.625 291.613281 230.566406 291.78125 C 228.5625 291.875 226.722656 292.925781 225.644531 294.621094 L 187.988281 353.734375 L 150.328125 294.621094 C 149.253906 292.925781 147.414062 291.875 145.40625 291.78125 C 145.335938 291.78125 145.238281 291.78125 145.167969 291.78125 C 143.253906 291.78125 141.441406 292.6875 140.269531 294.238281 L 126.3125 312.835938 C 95.871094 277.8125 90.136719 224.503906 90.089844 223.929688 C 89.851562 221.734375 88.464844 219.847656 86.457031 218.964844 C 84.425781 218.078125 82.109375 218.34375 80.316406 219.65625 L 65.953125 230.421875 C 66.457031 220.539062 67.484375 211.011719 68.824219 202.035156 C 77.734375 194.636719 89.347656 190.648438 111.1875 205.1875 C 120.246094 211.226562 127.222656 213.996094 133.125 214.546875 C 134.03125 224.144531 140.84375 234.265625 157.402344 236.320312 L 157.402344 236.773438 C 157.402344 253.628906 171.117188 267.332031 187.988281 267.332031 C 204.855469 267.332031 218.574219 253.628906 218.574219 236.773438 L 218.574219 236.320312 C 235.15625 234.265625 241.964844 224.121094 242.851562 214.523438 C 248.777344 213.972656 255.730469 211.226562 264.785156 205.1875 C 286.625 190.648438 298.238281 194.636719 307.152344 202.035156 C 308.488281 211.011719 309.515625 220.539062 310.019531 230.421875 Z M 84.425781 26.347656 L 101.75 64.449219 C 93.101562 70.703125 85.382812 77.890625 78.476562 85.792969 C 74.964844 61.871094 80.027344 39.714844 84.425781 26.347656 Z M 291.546875 26.347656 C 295.945312 39.714844 301.011719 61.871094 297.5 85.792969 C 290.59375 77.890625 282.875 70.703125 274.222656 64.449219 Z M 307.4375 98.445312 C 319.003906 52.058594 298.359375 9.707031 297.449219 7.914062 C 297.449219 7.914062 296.472656 6.386719 295.730469 5.816406 C 293.507812 4.070312 290.378906 4.09375 288.15625 5.863281 L 238.574219 45.492188 C 211.285156 35.226562 188.96875 35.085938 187.988281 35.085938 C 187.007812 35.085938 164.691406 35.226562 137.402344 45.492188 L 87.820312 5.863281 C 85.621094 4.09375 82.464844 4.070312 80.246094 5.816406 C 79.503906 6.386719 78.523438 7.914062 78.523438 7.914062 C 77.617188 9.707031 56.96875 52.058594 68.535156 98.445312 C 59.480469 111.625 52.476562 126.617188 47.53125 143.378906 C 46.910156 145.476562 47.484375 147.746094 48.988281 149.320312 C 50.519531 150.921875 52.765625 151.566406 54.890625 151.015625 L 68.535156 147.601562 C 63.085938 165.222656 53.410156 202.179688 53.410156 242.886719 C 53.410156 245.199219 54.722656 247.300781 56.78125 248.351562 C 58.859375 249.378906 61.34375 249.164062 63.207031 247.78125 L 79.457031 235.601562 C 82.945312 255.15625 93.554688 297.746094 122.492188 326.660156 C 123.734375 327.925781 125.476562 328.570312 127.246094 328.425781 C 129.015625 328.308594 130.640625 327.421875 131.714844 326.015625 L 144.761719 308.632812 L 182.824219 368.414062 C 183.949219 370.160156 185.882812 371.234375 187.988281 371.234375 C 190.089844 371.234375 192.027344 370.160156 193.148438 368.414062 L 231.214844 308.632812 L 244.261719 326.015625 C 245.335938 327.421875 246.960938 328.308594 248.726562 328.425781 C 250.496094 328.59375 252.242188 327.925781 253.484375 326.660156 C 282.421875 297.746094 293.03125 255.15625 296.519531 235.601562 L 312.765625 247.78125 C 314.632812 249.164062 317.117188 249.378906 319.195312 248.351562 C 321.25 247.300781 322.5625 245.199219 322.5625 242.886719 C 322.5625 202.179688 312.886719 165.222656 307.4375 147.601562 L 321.082031 151.015625 C 323.210938 151.566406 325.457031 150.921875 326.984375 149.320312 C 328.488281 147.746094 329.039062 145.476562 328.441406 143.378906 C 323.496094 126.617188 316.496094 111.625 307.4375 98.445312 " fill-opacity="1" fill-rule="nonzero"/></g><path fill="#000000" d="M 139.050781 163.433594 C 132.3125 163.433594 126.816406 168.921875 126.816406 175.65625 C 126.816406 182.386719 132.3125 187.878906 139.050781 187.878906 C 145.789062 187.878906 151.285156 182.386719 151.285156 175.65625 C 151.285156 168.921875 145.789062 163.433594 139.050781 163.433594 " fill-opacity="1" fill-rule="nonzero"/><path fill="#000000" d="M 236.925781 163.433594 C 230.1875 163.433594 224.691406 168.921875 224.691406 175.65625 C 224.691406 182.386719 230.1875 187.878906 236.925781 187.878906 C 243.664062 187.878906 249.160156 182.386719 249.160156 175.65625 C 249.160156 168.921875 243.664062 163.433594 236.925781 163.433594 " fill-opacity="1" fill-rule="nonzero"/></svg>